<svg xmlns="http://www.w3.org/2000/svg" xmlns:xlink="http://www.w3.org/1999/xlink" width="1080" height="74" viewBox="0 0 1080 74"><defs><style>.a,.c{fill:none;}.b{opacity:0.06;clip-path:url(#a);}.c{stroke:#ff5454;}.d{stroke:none;}</style><clipPath id="a"><rect class="a" width="1080" height="74"/></clipPath></defs><g class="b"><g transform="translate(3 2)"><g class="c" transform="translate(-3 -2)"><rect class="d" width="25" height="29"/><rect class="a" x="0.5" y="0.5" width="24" height="28"/></g></g><g transform="translate(27 2)"><g class="c" transform="translate(-3 -2)"><rect class="d" width="25" height="29"/><rect class="a" x="0.5" y="0.5" width="24" height="28"/></g></g><g transform="translate(51 2)"><g class="c" transform="translate(-3 -2)"><rect class="d" width="25" height="29"/><rect class="a" x="0.5" y="0.5" width="24" height="28"/></g></g><g transform="translate(75 2)"><g class="c" transform="translate(-3 -2)"><rect class="d" width="25" height="29"/><rect class="a" x="0.5" y="0.5" width="24" height="28"/></g></g><g transform="translate(99 2)"><g class="c" transform="translate(-3 -2)"><rect class="d" width="25" height="29"/><rect class="a" x="0.5" y="0.5" width="24" height="28"/></g></g><g transform="translate(123 2)"><g class="c" transform="translate(-3 -2)"><rect class="d" width="25" height="29"/><rect class="a" x="0.5" y="0.5" width="24" height="28"/></g></g><g transform="translate(147 2)"><g class="c" transform="translate(-3 -2)"><rect class="d" width="25" height="29"/><rect class="a" x="0.5" y="0.5" width="24" height="28"/></g></g><g transform="translate(171 2)"><g class="c" transform="translate(-3 -2)"><rect class="d" width="25" height="29"/><rect class="a" x="0.5" y="0.5" width="24" height="28"/></g></g><g transform="translate(195 2)"><g class="c" transform="translate(-3 -2)"><rect class="d" width="25" height="29"/><rect class="a" x="0.5" y="0.5" width="24" height="28"/></g></g><g transform="translate(219 2)"><g class="c" transform="translate(-3 -2)"><rect class="d" width="25" height="29"/><rect class="a" x="0.5" y="0.5" width="24" height="28"/></g></g><g transform="translate(243 2)"><g class="c" transform="translate(-3 -2)"><rect class="d" width="25" height="29"/><rect class="a" x="0.5" y="0.5" width="24" height="28"/></g></g><g transform="translate(267 2)"><g class="c" transform="translate(-3 -2)"><rect class="d" width="25" height="29"/><rect class="a" x="0.5" y="0.5" width="24" height="28"/></g></g><g transform="translate(291 2)"><g class="c" transform="translate(-3 -2)"><rect class="d" width="25" height="29"/><rect class="a" x="0.5" y="0.5" width="24" height="28"/></g></g><g transform="translate(315 2)"><g class="c" transform="translate(-3 -2)"><rect class="d" width="25" height="29"/><rect class="a" x="0.5" y="0.5" width="24" height="28"/></g></g><g transform="translate(339 2)"><g class="c" transform="translate(-3 -2)"><rect class="d" width="25" height="29"/><rect class="a" x="0.5" y="0.5" width="24" height="28"/></g></g><g transform="translate(363 2)"><g class="c" transform="translate(-3 -2)"><rect class="d" width="25" height="29"/><rect class="a" x="0.5" y="0.5" width="24" height="28"/></g></g><g transform="translate(387 2)"><g class="c" transform="translate(-3 -2)"><rect class="d" width="25" height="29"/><rect class="a" x="0.5" y="0.5" width="24" height="28"/></g></g><g transform="translate(411 2)"><g class="c" transform="translate(-3 -2)"><rect class="d" width="25" height="29"/><rect class="a" x="0.5" y="0.5" width="24" height="28"/></g></g><g transform="translate(435 2)"><g class="c" transform="translate(-3 -2)"><rect class="d" width="25" height="29"/><rect class="a" x="0.5" y="0.5" width="24" height="28"/></g></g><g transform="translate(459 2)"><g class="c" transform="translate(-3 -2)"><rect class="d" width="25" height="29"/><rect class="a" x="0.5" y="0.5" width="24" height="28"/></g></g><g transform="translate(483 2)"><g class="c" transform="translate(-3 -2)"><rect class="d" width="25" height="29"/><rect class="a" x="0.5" y="0.5" width="24" height="28"/></g></g><g transform="translate(507 2)"><g class="c" transform="translate(-3 -2)"><rect class="d" width="25" height="29"/><rect class="a" x="0.5" y="0.5" width="24" height="28"/></g></g><g transform="translate(531 2)"><g class="c" transform="translate(-3 -2)"><rect class="d" width="25" height="29"/><rect class="a" x="0.5" y="0.5" width="24" height="28"/></g></g><g transform="translate(555 2)"><g class="c" transform="translate(-3 -2)"><rect class="d" width="25" height="29"/><rect class="a" x="0.5" y="0.5" width="24" height="28"/></g></g><g transform="translate(579 2)"><g class="c" transform="translate(-3 -2)"><rect class="d" width="25" height="29"/><rect class="a" x="0.5" y="0.5" width="24" height="28"/></g></g><g transform="translate(603 2)"><g class="c" transform="translate(-3 -2)"><rect class="d" width="25" height="29"/><rect class="a" x="0.5" y="0.5" width="24" height="28"/></g></g><g transform="translate(627 2)"><g class="c" transform="translate(-3 -2)"><rect class="d" width="25" height="29"/><rect class="a" x="0.5" y="0.5" width="24" height="28"/></g></g><g transform="translate(651 2)"><g class="c" transform="translate(-3 -2)"><rect class="d" width="25" height="29"/><rect class="a" x="0.5" y="0.5" width="24" height="28"/></g></g><g transform="translate(675 2)"><g class="c" transform="translate(-3 -2)"><rect class="d" width="25" height="29"/><rect class="a" x="0.5" y="0.5" width="24" height="28"/></g></g><g transform="translate(699 2)"><g class="c" transform="translate(-3 -2)"><rect class="d" width="25" height="29"/><rect class="a" x="0.5" y="0.5" width="24" height="28"/></g></g><g transform="translate(723 2)"><g class="c" transform="translate(-3 -2)"><rect class="d" width="25" height="29"/><rect class="a" x="0.5" y="0.5" width="24" height="28"/></g></g><g transform="translate(747 2)"><g class="c" transform="translate(-3 -2)"><rect class="d" width="25" height="29"/><rect class="a" x="0.5" y="0.5" width="24" height="28"/></g></g><g transform="translate(771 2)"><g class="c" transform="translate(-3 -2)"><rect class="d" width="25" height="29"/><rect class="a" x="0.5" y="0.5" width="24" height="28"/></g></g><g transform="translate(795 2)"><g class="c" transform="translate(-3 -2)"><rect class="d" width="25" height="29"/><rect class="a" x="0.5" y="0.5" width="24" height="28"/></g></g><g transform="translate(819 2)"><g class="c" transform="translate(-3 -2)"><rect class="d" width="25" height="29"/><rect class="a" x="0.5" y="0.5" width="24" height="28"/></g></g><g transform="translate(843 2)"><g class="c" transform="translate(-3 -2)"><rect class="d" width="25" height="29"/><rect class="a" x="0.5" y="0.5" width="24" height="28"/></g></g><g transform="translate(867 2)"><g class="c" transform="translate(-3 -2)"><rect class="d" width="25" height="29"/><rect class="a" x="0.5" y="0.5" width="24" height="28"/></g></g><g transform="translate(891 2)"><g class="c" transform="translate(-3 -2)"><rect class="d" width="25" height="29"/><rect class="a" x="0.5" y="0.5" width="24" height="28"/></g></g><g transform="translate(915 2)"><g class="c" transform="translate(-3 -2)"><rect class="d" width="25" height="29"/><rect class="a" x="0.5" y="0.5" width="24" height="28"/></g></g><g transform="translate(939 2)"><g class="c" transform="translate(-3 -2)"><rect class="d" width="25" height="29"/><rect class="a" x="0.5" y="0.5" width="24" height="28"/></g></g><g transform="translate(963 2)"><g class="c" transform="translate(-3 -2)"><rect class="d" width="25" height="29"/><rect class="a" x="0.5" y="0.5" width="24" height="28"/></g></g><g transform="translate(987 2)"><g class="c" transform="translate(-3 -2)"><rect class="d" width="25" height="29"/><rect class="a" x="0.5" y="0.5" width="24" height="28"/></g></g><g transform="translate(1011 2)"><g class="c" transform="translate(-3 -2)"><rect class="d" width="25" height="29"/><rect class="a" x="0.5" y="0.5" width="24" height="28"/></g></g><g transform="translate(1035 2)"><g class="c" transform="translate(-3 -2)"><rect class="d" width="25" height="29"/><rect class="a" x="0.5" y="0.5" width="24" height="28"/></g></g><g transform="translate(1059 2)"><g class="c" transform="translate(-3 -2)"><rect class="d" width="25" height="29"/><rect class="a" x="0.5" y="0.5" width="24" height="28"/></g></g><g transform="translate(3 30)"><g class="c" transform="translate(-3 -2)"><rect class="d" width="25" height="29"/><rect class="a" x="0.5" y="0.5" width="24" height="28"/></g></g><g transform="translate(27 30)"><g class="c" transform="translate(-3 -2)"><rect class="d" width="25" height="29"/><rect class="a" x="0.5" y="0.5" width="24" height="28"/></g></g><g transform="translate(51 30)"><g class="c" transform="translate(-3 -2)"><rect class="d" width="25" height="29"/><rect class="a" x="0.5" y="0.5" width="24" height="28"/></g></g><g transform="translate(75 30)"><g class="c" transform="translate(-3 -2)"><rect class="d" width="25" height="29"/><rect class="a" x="0.5" y="0.5" width="24" height="28"/></g></g><g transform="translate(99 30)"><g class="c" transform="translate(-3 -2)"><rect class="d" width="25" height="29"/><rect class="a" x="0.5" y="0.5" width="24" height="28"/></g></g><g transform="translate(123 30)"><g class="c" transform="translate(-3 -2)"><rect class="d" width="25" height="29"/><rect class="a" x="0.5" y="0.5" width="24" height="28"/></g></g><g transform="translate(147 30)"><g class="c" transform="translate(-3 -2)"><rect class="d" width="25" height="29"/><rect class="a" x="0.5" y="0.5" width="24" height="28"/></g></g><g transform="translate(171 30)"><g class="c" transform="translate(-3 -2)"><rect class="d" width="25" height="29"/><rect class="a" x="0.5" y="0.5" width="24" height="28"/></g></g><g transform="translate(195 30)"><g class="c" transform="translate(-3 -2)"><rect class="d" width="25" height="29"/><rect class="a" x="0.5" y="0.5" width="24" height="28"/></g></g><g transform="translate(219 30)"><g class="c" transform="translate(-3 -2)"><rect class="d" width="25" height="29"/><rect class="a" x="0.5" y="0.5" width="24" height="28"/></g></g><g transform="translate(243 30)"><g class="c" transform="translate(-3 -2)"><rect class="d" width="25" height="29"/><rect class="a" x="0.5" y="0.5" width="24" height="28"/></g></g><g transform="translate(267 30)"><g class="c" transform="translate(-3 -2)"><rect class="d" width="25" height="29"/><rect class="a" x="0.5" y="0.5" width="24" height="28"/></g></g><g transform="translate(291 30)"><g class="c" transform="translate(-3 -2)"><rect class="d" width="25" height="29"/><rect class="a" x="0.5" y="0.5" width="24" height="28"/></g></g><g transform="translate(315 30)"><g class="c" transform="translate(-3 -2)"><rect class="d" width="25" height="29"/><rect class="a" x="0.5" y="0.5" width="24" height="28"/></g></g><g transform="translate(339 30)"><g class="c" transform="translate(-3 -2)"><rect class="d" width="25" height="29"/><rect class="a" x="0.5" y="0.5" width="24" height="28"/></g></g><g transform="translate(363 30)"><g class="c" transform="translate(-3 -2)"><rect class="d" width="25" height="29"/><rect class="a" x="0.5" y="0.5" width="24" height="28"/></g></g><g transform="translate(387 30)"><g class="c" transform="translate(-3 -2)"><rect class="d" width="25" height="29"/><rect class="a" x="0.5" y="0.5" width="24" height="28"/></g></g><g transform="translate(411 30)"><g class="c" transform="translate(-3 -2)"><rect class="d" width="25" height="29"/><rect class="a" x="0.5" y="0.5" width="24" height="28"/></g></g><g transform="translate(435 30)"><g class="c" transform="translate(-3 -2)"><rect class="d" width="25" height="29"/><rect class="a" x="0.5" y="0.5" width="24" height="28"/></g></g><g transform="translate(459 30)"><g class="c" transform="translate(-3 -2)"><rect class="d" width="25" height="29"/><rect class="a" x="0.5" y="0.5" width="24" height="28"/></g></g><g transform="translate(483 30)"><g class="c" transform="translate(-3 -2)"><rect class="d" width="25" height="29"/><rect class="a" x="0.5" y="0.5" width="24" height="28"/></g></g><g transform="translate(507 30)"><g class="c" transform="translate(-3 -2)"><rect class="d" width="25" height="29"/><rect class="a" x="0.5" y="0.5" width="24" height="28"/></g></g><g transform="translate(531 30)"><g class="c" transform="translate(-3 -2)"><rect class="d" width="25" height="29"/><rect class="a" x="0.5" y="0.5" width="24" height="28"/></g></g><g transform="translate(555 30)"><g class="c" transform="translate(-3 -2)"><rect class="d" width="25" height="29"/><rect class="a" x="0.5" y="0.5" width="24" height="28"/></g></g><g transform="translate(579 30)"><g class="c" transform="translate(-3 -2)"><rect class="d" width="25" height="29"/><rect class="a" x="0.5" y="0.5" width="24" height="28"/></g></g><g transform="translate(603 30)"><g class="c" transform="translate(-3 -2)"><rect class="d" width="25" height="29"/><rect class="a" x="0.5" y="0.5" width="24" height="28"/></g></g><g transform="translate(627 30)"><g class="c" transform="translate(-3 -2)"><rect class="d" width="25" height="29"/><rect class="a" x="0.5" y="0.5" width="24" height="28"/></g></g><g transform="translate(651 30)"><g class="c" transform="translate(-3 -2)"><rect class="d" width="25" height="29"/><rect class="a" x="0.5" y="0.5" width="24" height="28"/></g></g><g transform="translate(675 30)"><g class="c" transform="translate(-3 -2)"><rect class="d" width="25" height="29"/><rect class="a" x="0.5" y="0.5" width="24" height="28"/></g></g><g transform="translate(699 30)"><g class="c" transform="translate(-3 -2)"><rect class="d" width="25" height="29"/><rect class="a" x="0.5" y="0.5" width="24" height="28"/></g></g><g transform="translate(723 30)"><g class="c" transform="translate(-3 -2)"><rect class="d" width="25" height="29"/><rect class="a" x="0.5" y="0.5" width="24" height="28"/></g></g><g transform="translate(747 30)"><g class="c" transform="translate(-3 -2)"><rect class="d" width="25" height="29"/><rect class="a" x="0.5" y="0.5" width="24" height="28"/></g></g><g transform="translate(771 30)"><g class="c" transform="translate(-3 -2)"><rect class="d" width="25" height="29"/><rect class="a" x="0.5" y="0.5" width="24" height="28"/></g></g><g transform="translate(795 30)"><g class="c" transform="translate(-3 -2)"><rect class="d" width="25" height="29"/><rect class="a" x="0.5" y="0.5" width="24" height="28"/></g></g><g transform="translate(819 30)"><g class="c" transform="translate(-3 -2)"><rect class="d" width="25" height="29"/><rect class="a" x="0.5" y="0.5" width="24" height="28"/></g></g><g transform="translate(843 30)"><g class="c" transform="translate(-3 -2)"><rect class="d" width="25" height="29"/><rect class="a" x="0.5" y="0.5" width="24" height="28"/></g></g><g transform="translate(867 30)"><g class="c" transform="translate(-3 -2)"><rect class="d" width="25" height="29"/><rect class="a" x="0.5" y="0.5" width="24" height="28"/></g></g><g transform="translate(891 30)"><g class="c" transform="translate(-3 -2)"><rect class="d" width="25" height="29"/><rect class="a" x="0.5" y="0.5" width="24" height="28"/></g></g><g transform="translate(915 30)"><g class="c" transform="translate(-3 -2)"><rect class="d" width="25" height="29"/><rect class="a" x="0.5" y="0.5" width="24" height="28"/></g></g><g transform="translate(939 30)"><g class="c" transform="translate(-3 -2)"><rect class="d" width="25" height="29"/><rect class="a" x="0.5" y="0.5" width="24" height="28"/></g></g><g transform="translate(963 30)"><g class="c" transform="translate(-3 -2)"><rect class="d" width="25" height="29"/><rect class="a" x="0.5" y="0.5" width="24" height="28"/></g></g><g transform="translate(987 30)"><g class="c" transform="translate(-3 -2)"><rect class="d" width="25" height="29"/><rect class="a" x="0.5" y="0.5" width="24" height="28"/></g></g><g transform="translate(1011 30)"><g class="c" transform="translate(-3 -2)"><rect class="d" width="25" height="29"/><rect class="a" x="0.5" y="0.5" width="24" height="28"/></g></g><g transform="translate(1035 30)"><g class="c" transform="translate(-3 -2)"><rect class="d" width="25" height="29"/><rect class="a" x="0.5" y="0.5" width="24" height="28"/></g></g><g transform="translate(1059 30)"><g class="c" transform="translate(-3 -2)"><rect class="d" width="25" height="29"/><rect class="a" x="0.5" y="0.5" width="24" height="28"/></g></g><g transform="translate(3 58)"><g class="c" transform="translate(-3 -2)"><rect class="d" width="25" height="29"/><rect class="a" x="0.5" y="0.5" width="24" height="28"/></g></g><g transform="translate(27 58)"><g class="c" transform="translate(-3 -2)"><rect class="d" width="25" height="29"/><rect class="a" x="0.5" y="0.5" width="24" height="28"/></g></g><g transform="translate(51 58)"><g class="c" transform="translate(-3 -2)"><rect class="d" width="25" height="29"/><rect class="a" x="0.5" y="0.5" width="24" height="28"/></g></g><g transform="translate(75 58)"><g class="c" transform="translate(-3 -2)"><rect class="d" width="25" height="29"/><rect class="a" x="0.5" y="0.5" width="24" height="28"/></g></g><g transform="translate(99 58)"><g class="c" transform="translate(-3 -2)"><rect class="d" width="25" height="29"/><rect class="a" x="0.5" y="0.5" width="24" height="28"/></g></g><g transform="translate(123 58)"><g class="c" transform="translate(-3 -2)"><rect class="d" width="25" height="29"/><rect class="a" x="0.5" y="0.5" width="24" height="28"/></g></g><g transform="translate(147 58)"><g class="c" transform="translate(-3 -2)"><rect class="d" width="25" height="29"/><rect class="a" x="0.5" y="0.5" width="24" height="28"/></g></g><g transform="translate(171 58)"><g class="c" transform="translate(-3 -2)"><rect class="d" width="25" height="29"/><rect class="a" x="0.5" y="0.5" width="24" height="28"/></g></g><g transform="translate(195 58)"><g class="c" transform="translate(-3 -2)"><rect class="d" width="25" height="29"/><rect class="a" x="0.5" y="0.5" width="24" height="28"/></g></g><g transform="translate(219 58)"><g class="c" transform="translate(-3 -2)"><rect class="d" width="25" height="29"/><rect class="a" x="0.5" y="0.5" width="24" height="28"/></g></g><g transform="translate(243 58)"><g class="c" transform="translate(-3 -2)"><rect class="d" width="25" height="29"/><rect class="a" x="0.5" y="0.5" width="24" height="28"/></g></g><g transform="translate(267 58)"><g class="c" transform="translate(-3 -2)"><rect class="d" width="25" height="29"/><rect class="a" x="0.5" y="0.5" width="24" height="28"/></g></g><g transform="translate(291 58)"><g class="c" transform="translate(-3 -2)"><rect class="d" width="25" height="29"/><rect class="a" x="0.5" y="0.5" width="24" height="28"/></g></g><g transform="translate(315 58)"><g class="c" transform="translate(-3 -2)"><rect class="d" width="25" height="29"/><rect class="a" x="0.5" y="0.5" width="24" height="28"/></g></g><g transform="translate(339 58)"><g class="c" transform="translate(-3 -2)"><rect class="d" width="25" height="29"/><rect class="a" x="0.5" y="0.5" width="24" height="28"/></g></g><g transform="translate(363 58)"><g class="c" transform="translate(-3 -2)"><rect class="d" width="25" height="29"/><rect class="a" x="0.5" y="0.5" width="24" height="28"/></g></g><g transform="translate(387 58)"><g class="c" transform="translate(-3 -2)"><rect class="d" width="25" height="29"/><rect class="a" x="0.5" y="0.5" width="24" height="28"/></g></g><g transform="translate(411 58)"><g class="c" transform="translate(-3 -2)"><rect class="d" width="25" height="29"/><rect class="a" x="0.5" y="0.5" width="24" height="28"/></g></g><g transform="translate(435 58)"><g class="c" transform="translate(-3 -2)"><rect class="d" width="25" height="29"/><rect class="a" x="0.5" y="0.5" width="24" height="28"/></g></g><g transform="translate(459 58)"><g class="c" transform="translate(-3 -2)"><rect class="d" width="25" height="29"/><rect class="a" x="0.5" y="0.5" width="24" height="28"/></g></g><g transform="translate(483 58)"><g class="c" transform="translate(-3 -2)"><rect class="d" width="25" height="29"/><rect class="a" x="0.5" y="0.5" width="24" height="28"/></g></g><g transform="translate(507 58)"><g class="c" transform="translate(-3 -2)"><rect class="d" width="25" height="29"/><rect class="a" x="0.5" y="0.5" width="24" height="28"/></g></g><g transform="translate(531 58)"><g class="c" transform="translate(-3 -2)"><rect class="d" width="25" height="29"/><rect class="a" x="0.5" y="0.5" width="24" height="28"/></g></g><g transform="translate(555 58)"><g class="c" transform="translate(-3 -2)"><rect class="d" width="25" height="29"/><rect class="a" x="0.5" y="0.5" width="24" height="28"/></g></g><g transform="translate(579 58)"><g class="c" transform="translate(-3 -2)"><rect class="d" width="25" height="29"/><rect class="a" x="0.5" y="0.5" width="24" height="28"/></g></g><g transform="translate(603 58)"><g class="c" transform="translate(-3 -2)"><rect class="d" width="25" height="29"/><rect class="a" x="0.5" y="0.5" width="24" height="28"/></g></g><g transform="translate(627 58)"><g class="c" transform="translate(-3 -2)"><rect class="d" width="25" height="29"/><rect class="a" x="0.5" y="0.5" width="24" height="28"/></g></g><g transform="translate(651 58)"><g class="c" transform="translate(-3 -2)"><rect class="d" width="25" height="29"/><rect class="a" x="0.5" y="0.5" width="24" height="28"/></g></g><g transform="translate(675 58)"><g class="c" transform="translate(-3 -2)"><rect class="d" width="25" height="29"/><rect class="a" x="0.5" y="0.5" width="24" height="28"/></g></g><g transform="translate(699 58)"><g class="c" transform="translate(-3 -2)"><rect class="d" width="25" height="29"/><rect class="a" x="0.5" y="0.5" width="24" height="28"/></g></g><g transform="translate(723 58)"><g class="c" transform="translate(-3 -2)"><rect class="d" width="25" height="29"/><rect class="a" x="0.5" y="0.5" width="24" height="28"/></g></g><g transform="translate(747 58)"><g class="c" transform="translate(-3 -2)"><rect class="d" width="25" height="29"/><rect class="a" x="0.5" y="0.5" width="24" height="28"/></g></g><g transform="translate(771 58)"><g class="c" transform="translate(-3 -2)"><rect class="d" width="25" height="29"/><rect class="a" x="0.5" y="0.5" width="24" height="28"/></g></g><g transform="translate(795 58)"><g class="c" transform="translate(-3 -2)"><rect class="d" width="25" height="29"/><rect class="a" x="0.5" y="0.5" width="24" height="28"/></g></g><g transform="translate(819 58)"><g class="c" transform="translate(-3 -2)"><rect class="d" width="25" height="29"/><rect class="a" x="0.5" y="0.5" width="24" height="28"/></g></g><g transform="translate(843 58)"><g class="c" transform="translate(-3 -2)"><rect class="d" width="25" height="29"/><rect class="a" x="0.5" y="0.5" width="24" height="28"/></g></g><g transform="translate(867 58)"><g class="c" transform="translate(-3 -2)"><rect class="d" width="25" height="29"/><rect class="a" x="0.5" y="0.5" width="24" height="28"/></g></g><g transform="translate(891 58)"><g class="c" transform="translate(-3 -2)"><rect class="d" width="25" height="29"/><rect class="a" x="0.5" y="0.5" width="24" height="28"/></g></g><g transform="translate(915 58)"><g class="c" transform="translate(-3 -2)"><rect class="d" width="25" height="29"/><rect class="a" x="0.5" y="0.5" width="24" height="28"/></g></g><g transform="translate(939 58)"><g class="c" transform="translate(-3 -2)"><rect class="d" width="25" height="29"/><rect class="a" x="0.5" y="0.5" width="24" height="28"/></g></g><g transform="translate(963 58)"><g class="c" transform="translate(-3 -2)"><rect class="d" width="25" height="29"/><rect class="a" x="0.5" y="0.5" width="24" height="28"/></g></g><g transform="translate(987 58)"><g class="c" transform="translate(-3 -2)"><rect class="d" width="25" height="29"/><rect class="a" x="0.5" y="0.5" width="24" height="28"/></g></g><g transform="translate(1011 58)"><g class="c" transform="translate(-3 -2)"><rect class="d" width="25" height="29"/><rect class="a" x="0.5" y="0.5" width="24" height="28"/></g></g><g transform="translate(1035 58)"><g class="c" transform="translate(-3 -2)"><rect class="d" width="25" height="29"/><rect class="a" x="0.5" y="0.5" width="24" height="28"/></g></g><g transform="translate(1059 58)"><g class="c" transform="translate(-3 -2)"><rect class="d" width="25" height="29"/><rect class="a" x="0.5" y="0.5" width="24" height="28"/></g></g></g></svg>