<svg xmlns="http://www.w3.org/2000/svg" width="562.859" height="426.164" viewBox="0 0 562.859 426.164"><defs><style>.a{fill:none;stroke:#fff;stroke-linecap:round;stroke-miterlimit:10;stroke-width:3px;}</style></defs><path class="a" d="M412.568,204.746c-46.051-12.956-94.028,3.37-139.319,19.56-36.427,13.021-73.325,26.289-105.641,49.81-10.675,7.77-21.034,16.94-27.53,29.5-6.437,12.45-8.593,27.5-7.524,41.983,3.22,43.626,34.782,79.12,70.389,93.094s74.489,10.19,111.5,2.625C394.3,424.993,471.153,391.9,543.9,350.172c33.264-19.077,68.357-43.374,80.9-84.03,3.908-12.665,5.279-26.9,1.262-39.522-7.929-24.9-32.931-35.241-55.181-40.994-59.729-15.444-122.81-19.812-181.654-.294" transform="translate(22.727 -204.059) rotate(19)"/></svg>